<svg xmlns="http://www.w3.org/2000/svg" viewBox="0 0 128 128" width="128" height="128"><defs><style type="text/css">.menu-icon:hover{fill: #666;}.menu-icon{stroke: transparent;stroke-width: 8px;fill: #999;}</style></defs><path class="menu-icon" d="M33.3,81.7C27.4,73.1,24,62.9,24,52c0-21,12.7-40,32.1-48s41.8-3.5,56.7,11.4c20.2,20.3,20.2,53,0,73.4c-14.9,14.9-37.3,19.4-56.6,11.3c-3.5-1.5-6.8-3.3-9.9-5.4l-30.6,30.7c-3.6,3.6-9.4,3.6-12.9,0c-1.8-1.8-2.8-4.1-2.8-6.6c0-2.4,1-4.8,2.7-6.5L33.3,81.7z M76,87.9c19.9,0,36-16.1,36-36S95.8,16,76,16S40,32.1,40,52S56.1,87.9,76,87.9z"/></svg>