<?xml version="1.0" encoding="utf-8"?>
<svg version="1.1" id="Layer_1" xmlns="http://www.w3.org/2000/svg" xmlns:xlink="http://www.w3.org/1999/xlink" x="0px" y="0px" viewBox="0 0 69.4 69.4" style="enable-background:new 0 0 69.4 69.4;" xml:space="preserve">
<style type="text/css">
	.colored_blue{fill:#0077B5;}
	.colored_white{fill:#FFFFFF;}
</style>
<path class="colored_blue" d="M64.3,0H5.1C2.3,0,0,2.2,0,5v59.4c0,2.8,2.3,5,5.1,5h59.2c2.8,0,5.1-2.2,5.1-5V5C69.4,2.3,67.1,0,64.3,0z"/>
<rect x="10.3" y="26.1" class="colored_white" width="10.3" height="33.2"/>
<path class="colored_white" d="M27.1,26.1H37v4.5h0.1c1.4-2.6,4.7-5.4,9.8-5.4c10.5,0,12.4,6.9,12.4,15.8v18.2H49V43c0-3.9-0.1-8.8-5.4-8.8c-5.4,0-6.2,4.2-6.2,8.5v16.4H27.1L27.1,26.1L27.1,26.1z"/>
<circle class="colored_white" cx="15.5" cy="15.6" r="6"/>
</svg>