<?xml version="1.0" encoding="utf-8"?>
<svg version="1.1" id="Layer_1" xmlns="http://www.w3.org/2000/svg" xmlns:xlink="http://www.w3.org/1999/xlink" x="0px" y="0px" viewBox="-444 246.5 69.4 69.4" style="enable-background:new -444 246.5 69.4 69.4;" xml:space="preserve">
<style type="text/css">
	.colored_blue{fill:#55ACEE;}
	.colored_white{fill:#FFFFFF;}
</style>
<g class="svgicon">
	<rect x="-444" y="246.5" class="colored_blue" width="69.4" height="69.4"/>
	<path class="colored_white" d="M-385.6,266.3c-1.7,0.8-3.6,1.3-5.5,1.5c2-1.2,3.5-3.1,4.2-5.3c-1.9,1.1-3.9,1.9-6.1,2.3c-1.8-1.9-4.3-3-7-3c-5.3,0-9.6,4.3-9.6,9.6c0,0.8,0.1,1.5,0.2,2.2c-8-0.4-15.1-4.2-19.8-10c-0.8,1.4-1.3,3.1-1.3,4.8c0,3.3,1.7,6.3,4.3,8c-1.6,0-3.1-0.5-4.4-1.2v0.1c0,4.7,3.3,8.5,7.7,9.4c-0.8,0.2-1.7,0.3-2.5,0.3c-0.6,0-1.2-0.1-1.8-0.2c1.2,3.8,4.8,6.6,9,6.7c-3.3,2.6-7.4,4.1-11.9,4.1c-0.8,0-1.5,0-2.3-0.1c4.3,2.7,9.3,4.3,14.7,4.3c17.7,0,27.4-14.7,27.4-27.4c0-0.4,0-0.8,0-1.2C-388.5,269.9-386.9,268.2-385.6,266.3z"/>
</g>
</svg>