<?xml version="1.0" encoding="utf-8"?>
<svg version="1.1" id="Layer_1" xmlns="http://www.w3.org/2000/svg" xmlns:xlink="http://www.w3.org/1999/xlink" x="0px" y="0px" viewBox="-444 246.6 69.4 69.4" style="enable-background:new -444 246.6 69.4 69.4;" xml:space="preserve">
<style type="text/css">
	.colored_blue{fill:#3B5998;}
	.colored_white{fill:#FFFFFF;}
</style>
<g class="svgicon">
	<path id="Blue_1_" class="colored_blue" d="M-378.4,316c2.1,0,3.8-1.7,3.8-3.8v-61.8c0-2.1-1.7-3.8-3.8-3.8h-61.8c-2.1,0-3.8,1.7-3.8,3.8v61.8c0,2.1,1.7,3.8,3.8,3.8H-378.4z"/>
	<path id="f_1_" class="colored_white" d="M-396.1,316v-26.9h9l1.4-10.5h-10.4v-6.7c0-3,0.8-5.1,5.2-5.1h5.5v-9.4c-1-0.1-4.3-0.4-8.1-0.4c-8,0-13.5,4.9-13.5,13.8v7.7h-9V289h9v26.9L-396.1,316L-396.1,316z"/>
</g>
</svg>