<svg id="Layer_1" data-name="Layer 1" xmlns="http://www.w3.org/2000/svg" viewBox="0 0 329.4 329.4"><defs><style>.cls-1{fill:#c3c3c3;}.cls-2{fill:#25d366;}.cls-3{fill:#fff;fill-rule:evenodd;}</style></defs><title>WhatsappLogo</title><path id="whatsapp-background" class="cls-1" d="M-68.64-108.38a18,18,0,0,0,18-18V-419.75a18,18,0,0,0-18-18H-362a18,18,0,0,0-18,18v293.33a18,18,0,0,0,18,18H-68.64Z" transform="translate(380 437.78)"/><path id="whatsapp-background-2" data-name="whatsapp-background" class="cls-2" d="M-68.64-108.38a18,18,0,0,0,18-18V-419.75a18,18,0,0,0-18-18H-362a18,18,0,0,0-18,18v293.33a18,18,0,0,0,18,18H-68.64Z" transform="translate(380 437.78)"/><g id="WhatsappLogo"><path class="cls-3" d="M-128.79-358.18a117.49,117.49,0,0,0-83.65-34.68A118.42,118.42,0,0,0-330.71-274.62a118,118,0,0,0,15.79,59.12l-16.78,61.28L-269-170.66a118.15,118.15,0,0,0,56.51,14.39h0c65.17,0,118.23-53.05,118.26-118.25A117.54,117.54,0,0,0-128.79-358.18Zm-83.65,181.94h0a98.14,98.14,0,0,1-50-13.7l-3.59-2.13-37.2,9.76,9.93-36.27-2.34-3.72a98.05,98.05,0,0,1-15-52.31,98.43,98.43,0,0,1,98.33-98.28,97.62,97.62,0,0,1,69.49,28.83,97.7,97.7,0,0,1,28.76,69.54A98.43,98.43,0,0,1-212.45-176.24Zm53.91-73.61c-3-1.48-17.48-8.63-20.19-9.61s-4.68-1.48-6.65,1.48-7.63,9.61-9.36,11.59-3.45,2.22-6.4.74-12.48-4.6-23.76-14.67a89,89,0,0,1-16.44-20.47c-1.72-3-.18-4.56,1.3-6s3-3.45,4.43-5.18a20.17,20.17,0,0,0,3-4.93,5.44,5.44,0,0,0-.25-5.18c-0.74-1.48-6.65-16-9.11-21.94-2.4-5.76-4.83-5-6.65-5.07s-3.69-.1-5.66-0.1a10.86,10.86,0,0,0-7.88,3.7c-2.71,3-10.34,10.11-10.34,24.65s10.59,28.59,12.07,30.57S-239.64-238.5-210-225.7a169.72,169.72,0,0,0,16.84,6.22,40.49,40.49,0,0,0,18.61,1.17c5.68-.85,17.48-7.15,19.94-14s2.46-12.82,1.72-14.05S-155.58-248.37-158.53-249.85Z" transform="translate(380 437.78)"/></g></svg>