<?xml version="1.0" encoding="utf-8"?>
<!-- Generator: Adobe Illustrator 21.0.1, SVG Export Plug-In . SVG Version: 6.00 Build 0)  -->
<svg version="1.1" id="Layer_2" xmlns="http://www.w3.org/2000/svg" xmlns:xlink="http://www.w3.org/1999/xlink" x="0px" y="0px"
	 viewBox="0 0 69.4 69.4" style="enable-background:new 0 0 69.4 69.4;" xml:space="preserve">
<g>
	<path d="M34.7,6.3c9.3,0,10.4,0,14,0.2c3.4,0.2,5.2,0.7,6.4,1.2c1.6,0.6,2.8,1.4,4,2.6c1.2,1.2,2,2.4,2.6,4c0.5,1.2,1,3.1,1.2,6.4
		c0.2,3.7,0.2,4.8,0.2,14s0,10.4-0.2,14c-0.2,3.4-0.7,5.2-1.2,6.4c-0.6,1.6-1.4,2.8-2.6,4c-1.2,1.2-2.4,2-4,2.6
		c-1.2,0.5-3.1,1-6.4,1.2c-3.7,0.2-4.8,0.2-14,0.2s-10.4,0-14-0.2c-3.4-0.2-5.2-0.7-6.4-1.2c-1.6-0.6-2.8-1.4-4-2.6
		c-1.2-1.2-2-2.4-2.6-4c-0.5-1.2-1-3.1-1.2-6.4c-0.2-3.7-0.2-4.8-0.2-14s0-10.4,0.2-14c0.2-3.4,0.7-5.2,1.2-6.4
		c0.6-1.6,1.4-2.8,2.6-4c1.2-1.2,2.4-2,4-2.6c1.2-0.5,3.1-1,6.4-1.2C24.3,6.3,25.4,6.3,34.7,6.3 M34.7,0c-9.4,0-10.6,0-14.3,0.2
		C16.7,0.4,14.2,1,12,1.8c-2.3,0.9-4.2,2.1-6.1,4c-1.9,1.9-3.1,3.9-4,6.1c-0.9,2.2-1.4,4.7-1.6,8.4C0,24.1,0,25.3,0,34.7
		C0,44.1,0,45.3,0.2,49c0.2,3.7,0.8,6.2,1.6,8.4c0.9,2.3,2.1,4.2,4,6.1c1.9,1.9,3.9,3.1,6.1,4c2.2,0.9,4.7,1.4,8.4,1.6
		c3.7,0.2,4.9,0.2,14.3,0.2s10.6,0,14.3-0.2c3.7-0.2,6.2-0.8,8.4-1.6c2.3-0.9,4.2-2.1,6.1-4c1.9-1.9,3.1-3.9,4-6.1
		c0.9-2.2,1.4-4.7,1.6-8.4c0.2-3.7,0.2-4.9,0.2-14.3s0-10.6-0.2-14.3c-0.2-3.7-0.8-6.2-1.6-8.4c-0.9-2.3-2.1-4.2-4-6.1
		c-1.9-1.9-3.9-3.1-6.1-4C55.2,1,52.7,0.4,49,0.2C45.3,0,44.1,0,34.7,0L34.7,0z"/>
	<path d="M34.7,16.9c-9.8,0-17.8,8-17.8,17.8s8,17.8,17.8,17.8s17.8-8,17.8-17.8S44.5,16.9,34.7,16.9z M34.7,46.3
		c-6.4,0-11.6-5.2-11.6-11.6s5.2-11.6,11.6-11.6s11.6,5.2,11.6,11.6S41.1,46.3,34.7,46.3z"/>
	<circle cx="53.2" cy="16.2" r="4.2"/>
</g>
</svg>
